<?xml version="1.0" encoding="UTF-8"?>
<svg width="93px" height="93px" viewBox="0 0 93 93" version="1.1" xmlns="http://www.w3.org/2000/svg" xmlns:xlink="http://www.w3.org/1999/xlink">
    <!-- Generator: Sketch 53.2 (72643) - https://sketchapp.com -->
    <title>App icon</title>
    <desc>Created with Sketch.</desc>
    <defs>
        <linearGradient x1="100%" y1="100%" x2="0%" y2="0%" id="linearGradient-1">
            <stop stop-color="#3B852A" offset="0%"></stop>
            <stop stop-color="#4B8F28" offset="20%"></stop>
            <stop stop-color="#5A9926" offset="40%"></stop>
            <stop stop-color="#68A322" offset="60%"></stop>
            <stop stop-color="#76AE1E" offset="80%"></stop>
            <stop stop-color="#84B818" offset="100%"></stop>
        </linearGradient>
    </defs>
    <g id="SymptomChecker" stroke="none" stroke-width="1" fill="none" fill-rule="evenodd">
        <g id="Option-2-Copy-2" transform="translate(-189.000000, -1815.000000)">
            <g id="App-promo" transform="translate(-3.000000, 1704.000000)">
                <g id="App-icon" transform="translate(192.000000, 111.000000)">
                    <rect id="Rectangle" fill="url(#linearGradient-1)" x="0" y="0" width="93" height="93" rx="20"></rect>
                    <g id="BlackBG/-RP-logo-mark---white" transform="translate(25.000000, 13.000000)" fill="#FFFFFF">
                        <path d="M4.37639621,3.91361242 C3.82146562,3.91361242 3.36989779,4.36847083 3.36989779,4.92744521 L3.36989779,42.3430672 C3.36989779,42.9211705 3.84167697,43.3568999 4.46714385,43.3568999 L38.5757748,43.3568999 C38.773412,43.353894 38.9648095,43.2919983 39.1293489,43.1777713 C39.3507243,43.0240567 39.4993931,42.7927334 39.5479546,42.5262949 C39.5966517,42.259993 39.5395445,41.9904118 39.386942,41.7675599 L32.9410114,32.3508023 C32.5660839,31.8027587 32.3744151,31.2656459 32.355289,30.7089944 C32.3213773,29.7317798 32.8714246,28.7571613 33.7567905,28.2261971 C38.5574625,25.348251 39.5650461,20.651008 39.5647748,17.2172301 C39.5647748,9.88156235 33.6399987,3.91361242 26.357535,3.91361242 L4.37639621,3.91361242 Z M38.5935445,46.7514635 L4.46714385,46.7514635 C1.96229211,46.7514635 2.71293375e-05,44.8150702 2.71293375e-05,42.3430672 L2.71293375e-05,4.92744521 C2.71293375e-05,2.49670596 1.96324164,0.519185482 4.37639621,0.519185482 L26.357535,0.519185482 C35.4982227,0.519185482 42.9347811,8.00979748 42.9347811,17.2172301 C42.9350524,23.0958206 40.4748284,27.9036015 35.9911628,30.8237679 L42.161595,39.841141 C43.5309483,41.8425726 43.0286486,44.5931748 41.0418315,45.9726432 C40.3199199,46.4738209 39.4760618,46.7429921 38.6015476,46.7513269 L38.5935445,46.7514635 Z" id="Fill-1"></path>
                        <path d="M13.7667281,14.7969161 C13.7667281,14.0481555 14.3702202,13.4402657 15.113564,13.4402657 L21.541318,13.4402657 C25.5196997,13.4402657 27.9674442,15.1605022 27.9674442,18.5389429 L27.9674442,18.6615046 C27.9674442,21.7938653 25.6415104,23.7597718 21.6015451,23.7597718 L17.7537912,23.7597718 L13.7690341,27.7582627 L13.7690341,23.7597718 L13.7667281,23.7597718 L13.7667281,14.7969161" id="Fill-4"></path>
                    </g>
                    <path d="M18.176,69.2 L20.332,69.2 L20.332,73.078 L24.308,73.078 L24.308,69.2 L26.464,69.2 L26.464,79 L24.308,79 L24.308,75.066 L20.332,75.066 L20.332,79 L18.176,79 L18.176,69.2 Z M34.604,77.18 C35.0333355,77.18 35.4299982,77.1006675 35.794,76.942 C36.1580018,76.7833325 36.4683321,76.5640014 36.725,76.284 C36.981668,76.0039986 37.1823326,75.6796685 37.327,75.311 C37.4716674,74.9423315 37.544,74.5480021 37.544,74.128 L37.544,74.1 C37.544,73.6799979 37.4716674,73.2833352 37.327,72.91 C37.1823326,72.5366648 36.9770013,72.2100014 36.711,71.93 C36.4449987,71.6499986 36.1300018,71.4283341 35.766,71.265 C35.4019982,71.1016659 35.0053355,71.02 34.576,71.02 C34.1373311,71.02 33.7383351,71.0993325 33.379,71.258 C33.0196649,71.4166675 32.711668,71.6359986 32.455,71.916 C32.1983321,72.1960014 31.9976674,72.5203315 31.853,72.889 C31.7083326,73.2576685 31.636,73.6519979 31.636,74.072 L31.636,74.1 C31.636,74.5200021 31.7083326,74.9166648 31.853,75.29 C31.9976674,75.6633352 32.2029987,75.9899986 32.469,76.27 C32.7350013,76.5500014 33.0476649,76.7716659 33.407,76.935 C33.7663351,77.0983342 34.1653311,77.18 34.604,77.18 Z M34.576,79.168 C33.8199962,79.168 33.1246698,79.0350013 32.49,78.769 C31.8553302,78.5029987 31.3070023,78.1436689 30.845,77.691 C30.3829977,77.2383311 30.023668,76.7063364 29.767,76.095 C29.5103321,75.4836636 29.382,74.8280035 29.382,74.128 L29.382,74.1 C29.382,73.3999965 29.5126654,72.7443364 29.774,72.133 C30.0353346,71.5216636 30.3969977,70.9850023 30.859,70.523 C31.3210023,70.0609977 31.8716635,69.6970013 32.511,69.431 C33.1503365,69.1649987 33.8479962,69.032 34.604,69.032 C35.3600038,69.032 36.0553302,69.1649987 36.69,69.431 C37.3246698,69.6970013 37.8729977,70.0563311 38.335,70.509 C38.7970023,70.9616689 39.1563321,71.4936636 39.413,72.105 C39.669668,72.7163364 39.798,73.3719965 39.798,74.072 L39.798,74.1 C39.798,74.8000035 39.6673346,75.4556636 39.406,76.067 C39.1446654,76.6783364 38.7830023,77.2149977 38.321,77.677 C37.8589977,78.1390023 37.3083365,78.5029987 36.669,78.769 C36.0296635,79.0350013 35.3320038,79.168 34.576,79.168 Z M42.716,69.2 L45.04,69.2 L47.616,73.344 L50.192,69.2 L52.516,69.2 L52.516,79 L50.374,79 L50.374,72.602 L47.616,76.788 L47.56,76.788 L44.83,72.644 L44.83,79 L42.716,79 L42.716,69.2 Z M55.868,69.2 L63.26,69.2 L63.26,71.118 L58.01,71.118 L58.01,73.106 L62.63,73.106 L62.63,75.024 L58.01,75.024 L58.01,77.082 L63.33,77.082 L63.33,79 L55.868,79 L55.868,69.2 Z M69.734,79.14 C68.9873296,79.14 68.2546703,79.0116679 67.536,78.755 C66.8173297,78.4983321 66.1640029,78.1040027 65.576,77.572 L66.85,76.046 C67.2980022,76.4100018 67.7576643,76.6993323 68.229,76.914 C68.7003357,77.1286677 69.2159972,77.236 69.776,77.236 C70.2240022,77.236 70.5716654,77.1543342 70.819,76.991 C71.0663346,76.8276658 71.19,76.6013348 71.19,76.312 L71.19,76.284 C71.19,76.1439993 71.1643336,76.0203339 71.113,75.913 C71.0616664,75.8056661 70.9636674,75.7053338 70.819,75.612 C70.6743326,75.5186662 70.473668,75.4253338 70.217,75.332 C69.9603321,75.2386662 69.6266687,75.1406672 69.216,75.038 C68.7213309,74.9166661 68.2733353,74.7813341 67.872,74.632 C67.4706647,74.4826659 67.1300014,74.2983344 66.85,74.079 C66.5699986,73.8596656 66.3530008,73.5866683 66.199,73.26 C66.0449992,72.9333317 65.968,72.5273358 65.968,72.042 L65.968,72.014 C65.968,71.5659978 66.0519992,71.1623351 66.22,70.803 C66.3880008,70.4436649 66.6236652,70.1333346 66.927,69.872 C67.2303349,69.6106654 67.5919979,69.4100007 68.012,69.27 C68.4320021,69.1299993 68.8939975,69.06 69.398,69.06 C70.1166703,69.06 70.776997,69.1673323 71.379,69.382 C71.981003,69.5966677 72.5339975,69.9046647 73.038,70.306 L71.918,71.93 C71.4793311,71.6313318 71.0500021,71.3956675 70.63,71.223 C70.2099979,71.0503325 69.7900021,70.964 69.37,70.964 C68.9499979,70.964 68.6350011,71.0456658 68.425,71.209 C68.214999,71.3723341 68.11,71.5753321 68.11,71.818 L68.11,71.846 C68.11,72.0046675 68.140333,72.1423327 68.201,72.259 C68.261667,72.3756673 68.3713325,72.4806662 68.53,72.574 C68.6886675,72.6673338 68.9056653,72.7559996 69.181,72.84 C69.4563347,72.9240004 69.8039979,73.0219994 70.224,73.134 C70.7186691,73.2646673 71.1596647,73.4116658 71.547,73.575 C71.9343353,73.7383341 72.2609987,73.9343322 72.527,74.163 C72.7930013,74.3916678 72.993666,74.6599985 73.129,74.968 C73.264334,75.2760015 73.332,75.6446645 73.332,76.074 L73.332,76.102 C73.332,76.5873358 73.2433342,77.0189981 73.066,77.397 C72.8886658,77.7750019 72.6413349,78.0923321 72.324,78.349 C72.0066651,78.6056679 71.6286689,78.801666 71.19,78.937 C70.7513311,79.072334 70.2660027,79.14 69.734,79.14 Z" id="HOMES" fill="#FFFFFF" fill-rule="nonzero"></path>
                </g>
            </g>
        </g>
    </g>
</svg>